<svg xmlns="http://www.w3.org/2000/svg" version="1.1" xmlns:xlink="http://www.w3.org/1999/xlink" width="512" height="512" x="0" y="0" viewBox="0 0 512 512" style="enable-background:new 0 0 512 512" xml:space="preserve" class=""><g><path fill="#ffffff" d="M502.32 105.59a31.404 31.404 0 0 0-31.369-30.845L37.172 76.031a31.274 31.274 0 0 0-31.169 31.747c.27 18.429-.44-29.042 3.84 255.611a31.42 31.42 0 0 0 31.335 30.802l267.965-.46-1.591 30.049 29.99-15.679 23.807 29.154 34.761-28.107-11.2-15.546 89.874-.154a31.26 31.26 0 0 0 31.213-31.725c-3.875-269.624-3.417-237.649-3.677-256.132z" opacity="1" data-original="#ffffff" class=""></path><path fill="#ffe3d8" d="M492.413 361.918a17.695 17.695 0 0 1-17.655 17.945l-433.604.742a17.691 17.691 0 0 1-17.728-17.42C19.32 90.157 19.851 125.567 19.587 107.58a17.706 17.706 0 0 1 17.637-17.963l433.767-1.285a17.663 17.663 0 0 1 17.746 17.438c.277 19.802-.446-30.667 3.676 256.15z" opacity="1" data-original="#ff3d81" class=""></path><path fill="#021768" d="m325.45 342.673-3.072 58.027 18.682-9.768 22.261 27.258 14.256-11.527-19.562-27.153 15.433-12.455z" opacity="1" data-original="#021768"></path><path fill="#3c84e3" d="M488.936 119.965H19.769l-.182-12.386a17.706 17.706 0 0 1 17.637-17.963l433.767-1.285a17.663 17.663 0 0 1 17.746 17.438z" opacity="1" data-original="#4c3ce3" class=""></path><g fill="#fcc836"><circle cx="38.377" cy="104.148" r="5.701" fill="#fcc836" opacity="1" data-original="#fcc836" class=""></circle><circle cx="56.449" cy="104.148" r="5.701" fill="#fcc836" opacity="1" data-original="#fcc836" class=""></circle><circle cx="74.52" cy="104.148" r="5.701" fill="#fcc836" opacity="1" data-original="#fcc836" class=""></circle></g><path fill="#3c84e3" d="m51.146 212.903 5.163 68.737h90.036l1.936-68.737z" opacity="1" data-original="#4c3ce3" class=""></path><path fill="#5ed4be" d="M45.014 211.29v7.753c0 20.503 29.956 22.92 33.316 2.758l.569-3.412 1.148 3.647a19.692 19.692 0 0 0 37.5.212l1.368-4.182 1.643 5.316c5.938 19.214 34.5 14.975 34.5-5.21v-6.882l-20.653-42.92H63.73z" opacity="1" data-original="#5ed4be"></path><path fill="#0038a6" d="M81.158 281.64s-6.454-34.207 18.878-36.466 16.62 36.466 16.62 36.466z" opacity="1" data-original="#0038a6" class=""></path><path fill="#ffffff" d="M36.731 307.002a14.331 14.331 0 0 0 14.332 14.331H160.95a14.331 14.331 0 0 0 14.331-14.331c-.04-.1.893-16.665-14.598-16.377l-109.887 2.048a14.331 14.331 0 0 0-14.065 14.329z" opacity="1" data-original="#9b377f" class=""></path><path fill="#fcc836" d="m201.139 212.903 5.164 68.737h90.036l1.936-68.737z" opacity="1" data-original="#fcc836" class=""></path><path fill="#3c84e3" d="M195.008 211.29v7.753c0 20.503 29.955 22.92 33.316 2.758l.568-3.412 1.149 3.647c5.734 18.216 31.561 18.355 37.499.212l1.368-4.182 1.643 5.316c5.94 19.214 34.5 14.975 34.5-5.21v-6.882l-20.653-42.92h-70.673z" opacity="1" data-original="#4c3ce3" class=""></path><path fill="#776cff" d="M231.151 281.64s-6.454-34.207 18.879-36.466 16.62 36.466 16.62 36.466z" opacity="1" data-original="#776cff" class=""></path><path fill="#ffffff" d="M186.725 307.002a14.331 14.331 0 0 0 14.332 14.331h109.886a14.331 14.331 0 0 0 14.332-14.331c-.04-.1.893-16.665-14.599-16.377l-109.886 2.048a14.331 14.331 0 0 0-14.065 14.329z" opacity="1" data-original="#9b377f" class=""></path><path fill="#3c84e3" d="m351.133 212.903 5.163 68.737h90.036l1.937-68.737z" opacity="1" data-original="#4c3ce3" class=""></path><path fill="#fcc836" d="M345.002 211.29v7.753c0 20.503 29.955 22.92 33.315 2.758l.57-3.412 1.147 3.647c5.735 18.216 31.562 18.355 37.5.212l1.368-4.182 1.643 5.316c5.939 19.214 34.5 14.975 34.5-5.21v-6.882l-20.653-42.92h-70.673z" opacity="1" data-original="#fcc836" class=""></path><path fill="#0038a6" d="M381.145 281.64s-6.454-34.207 18.878-36.466 16.62 36.466 16.62 36.466z" opacity="1" data-original="#0038a6" class=""></path><path fill="#ffffff" d="M336.719 307.002a14.331 14.331 0 0 0 14.331 14.331h109.887a14.331 14.331 0 0 0 14.332-14.331c-.04-.1.892-16.665-14.599-16.377l-109.887 2.048a14.331 14.331 0 0 0-14.064 14.329z" opacity="1" data-original="#9b377f" class=""></path></g></svg>