<svg xmlns="http://www.w3.org/2000/svg" version="1.1" xmlns:xlink="http://www.w3.org/1999/xlink" width="512" height="512" x="0" y="0" viewBox="0 0 512 512" style="enable-background:new 0 0 512 512" xml:space="preserve" class=""><g><path fill="#5180cb" d="M437.842 252.675v-8.067c0-5.112 4.159-9.272 9.272-9.272h48.919v-78.401c0-18.851-15.282-34.133-34.133-34.133H359.5c-18.851 0-34.133 15.282-34.133 34.133v95.74z" opacity="1" data-original="#ffe177" class=""></path><path fill="#5180cb" d="m410.699 129.457 29.38 28.486c3.267 3.168 8.736.853 8.736-3.698v-31.443h-76.233v31.443c0 4.551 5.469 6.866 8.736 3.698zM463.753 122.853v112.483h32.279v-78.401c0-18.23-14.29-33.119-32.279-34.082z" opacity="1" data-original="#ffd15b" class=""></path><circle cx="410.699" cy="83.051" r="46.268" fill="#ffd2c1" opacity="1" data-original="#c96e59" class=""></circle><path fill="#d8ecfe" d="M64.887 235.336c5.112 0 9.272 4.159 9.272 9.272v8.067h112.476v-95.74c0-18.851-15.282-34.133-34.133-34.133h-102.4c-18.851 0-34.133 15.282-34.133 34.133v78.401z" opacity="1" data-original="#d8ecfe" class=""></path><path fill="#685e68" d="m78.485 122.801 14.358 37.786.842 1.03h15.159l.861-1.03 14.08-37.786z" opacity="1" data-original="#685e68" class=""></path><path fill="#554e56" d="m121.396 252.675-11.691-92.088H92.843l-11.978 92.088z" opacity="1" data-original="#554e56" class=""></path><circle cx="101.301" cy="83.051" r="46.268" fill="#ffcebf" opacity="1" data-original="#ffcebf" class=""></circle><path fill="#cbc4cc" d="M387.348 252.675v-29.452a5.15 5.15 0 0 0-5.151-5.151h-29.335a5.133 5.133 0 0 1-4.898-3.587 95.842 95.842 0 0 0-6.372-15.379 5.135 5.135 0 0 1 .926-6.003l20.745-20.745a5.15 5.15 0 0 0 0-7.285l-28.769-28.769a5.15 5.15 0 0 0-7.285 0l-20.745 20.745a5.135 5.135 0 0 1-6.003.926 95.842 95.842 0 0 0-15.379-6.372 5.134 5.134 0 0 1-3.587-4.898v-29.336a5.15 5.15 0 0 0-5.151-5.151h-40.686a5.15 5.15 0 0 0-5.151 5.151v29.336a5.133 5.133 0 0 1-3.587 4.898 95.842 95.842 0 0 0-15.379 6.372 5.135 5.135 0 0 1-6.003-.926l-20.745-20.745a5.15 5.15 0 0 0-7.285 0l-28.769 28.769a5.15 5.15 0 0 0 0 7.285l20.745 20.745a5.135 5.135 0 0 1 .926 6.003 95.842 95.842 0 0 0-6.372 15.379 5.135 5.135 0 0 1-4.898 3.587h-29.336a5.15 5.15 0 0 0-5.151 5.151v29.452z" opacity="1" data-original="#cbc4cc" class=""></path><path fill="#ffd2c1" d="m384.358 372.679-75.763-75.763-82.832-45.272H74.158V352.95h27.971c4.098 0 8.029 1.628 10.927 4.526l110.857 110.857c8.679 8.679 22.82 9.322 31.802.957 9.43-8.782 9.628-23.552.594-32.586l10.671 10.671c8.84 8.84 23.172 8.84 32.012 0s8.84-23.172 0-32.012l10.671 10.671c8.84 8.84 23.172 8.84 32.012 0s8.84-23.172 0-32.012l10.671 10.671c8.84 8.84 23.172 8.84 32.012 0 8.84-8.841 8.84-23.174 0-32.014z" opacity="1" data-original="#c96e59" class=""></path><path fill="#ffbdaa" d="m384.358 372.679-75.763-75.763h-21.072l75.846 75.846c8.84 8.84 8.84 23.172 0 32.012a22.617 22.617 0 0 1-5.429 4.01c8.524 4.418 19.267 3.057 26.418-4.094 8.84-8.838 8.84-23.171 0-32.011zM298.992 415.363l-49.266-49.266a7.292 7.292 0 0 0-10.311 10.311l38.554 38.554c8.274 8.274 9.351 21.588 1.973 30.67a22.577 22.577 0 0 1-7.267 5.884c8.508 4.356 19.194 2.983 26.317-4.14 8.84-8.841 8.84-23.173 0-32.013zM258.442 439.212l.203-.171-2.336-2.336c.79.789 1.484 1.637 2.133 2.507z" opacity="1" data-original="#bb5d4c" class=""></path><path fill="#a79ba7" d="M302.019 252.675c.58-2.947.891-5.992.891-9.109 0-25.908-21.002-46.91-46.91-46.91s-46.91 21.002-46.91 46.91c0 3.118.311 6.162.891 9.109z" opacity="1" data-original="#a79ba7" class=""></path><path fill="#918291" d="M277.03 201.636a46.715 46.715 0 0 1 4.725 20.531v.094c-.01 5.009-4.19 9.016-9.199 9.016h-61.828a46.95 46.95 0 0 0-.747 21.399h92.037c.58-2.947.891-5.992.891-9.109.001-18.346-10.535-34.22-25.879-41.931z" opacity="1" data-original="#918291" class=""></path><path fill="#ffcebf" d="M437.842 251.644H225.764a15.455 15.455 0 0 0-10.986 4.585l-40.151 40.588c-5.839 5.902-5.813 15.413.058 21.284l.058.058c11.787 11.787 30.897 11.787 42.683 0l16.716-16.716a15.452 15.452 0 0 1 10.927-4.526h57.127c4.098 0 8.029 1.628 10.927 4.526l71.237 71.237 15.203-15.203a15.452 15.452 0 0 1 10.927-4.526h27.353V251.644z" opacity="1" data-original="#ffcebf" class=""></path><path fill="#ffb09e" d="m399.561 314.444-36.719 36.719 21.516 21.516 15.203-15.203a15.452 15.452 0 0 1 10.927-4.526h27.353v-43.033h-27.353a15.459 15.459 0 0 0-10.927 4.527zM245.061 271.246a15.454 15.454 0 0 0-10.927 4.526l-16.716 16.716c-11.079 11.079-28.626 11.742-40.482 1.994l-2.31 2.335c-5.839 5.902-5.813 15.413.057 21.284l.058.058c11.787 11.787 30.897 11.787 42.683 0l16.716-16.716a15.452 15.452 0 0 1 10.927-4.526h57.127c4.098 0 8.029 1.628 10.927 4.526l9.614 9.614-4.978-21.654a23.398 23.398 0 0 0-22.803-18.156h-49.893z" opacity="1" data-original="#ffb09e" class=""></path><path fill="#47ba43" d="M0 244.607v115.38c0 5.69 4.612 10.302 10.302 10.302h54.585c5.69 0 10.302-4.612 10.302-10.302v-115.38c0-5.69-4.612-10.302-10.302-10.302H10.302C4.612 234.305 0 238.918 0 244.607z" opacity="1" data-original="#05e39c" class=""></path><path fill="#0ed290" d="M64.887 234.305H42.753v93.807c0 5.69-4.612 10.302-10.302 10.302H0v21.573c0 5.69 4.612 10.302 10.302 10.302h54.585c5.69 0 10.302-4.612 10.302-10.302v-115.38c0-5.689-4.613-10.302-10.302-10.302z" opacity="1" data-original="#0ed290" class=""></path><path fill="#26a6fe" d="M436.811 244.607v115.38c0 5.69 4.612 10.302 10.302 10.302h54.585c5.69 0 10.302-4.612 10.302-10.302v-115.38c0-5.69-4.612-10.302-10.302-10.302h-54.585c-5.689 0-10.302 4.613-10.302 10.302z" opacity="1" data-original="#26a6fe" class=""></path><path fill="#0593fc" d="M501.698 234.305h-22.149v93.807c0 5.69-4.612 10.302-10.302 10.302h-32.436v21.573c0 5.69 4.612 10.302 10.302 10.302h54.585c5.69 0 10.302-4.612 10.302-10.302v-115.38c0-5.689-4.612-10.302-10.302-10.302z" opacity="1" data-original="#0593fc" class=""></path><path fill="#ffb09e" d="M108.256 37.304a46.045 46.045 0 0 1 6.781 24.12c0 25.553-20.715 46.268-46.268 46.268-2.364 0-4.686-.179-6.955-.521 8.131 13.282 22.772 22.147 39.487 22.147 25.553 0 46.268-20.715 46.268-46.268 0-23.188-17.06-42.391-39.313-45.746z" opacity="1" data-original="#ffb09e" class=""></path><path fill="#ffbdaa" d="M417.654 37.304a46.045 46.045 0 0 1 6.781 24.12c0 25.553-20.715 46.268-46.268 46.268-2.364 0-4.686-.179-6.955-.521 8.131 13.282 22.772 22.147 39.487 22.147 25.553 0 46.268-20.715 46.268-46.268 0-23.188-17.06-42.391-39.313-45.746zM256.309 436.704l-42.429-42.429a7.684 7.684 0 0 0-10.487-.354c-3.35 2.925-3.524 8.075-.379 11.22l38.356 38.356c8.734 8.734 8.812 22.812.288 31.675 5.082-.251 10.076-2.174 14.056-5.881 9.43-8.783 9.628-23.553.595-32.587zM341.675 394.021l-59.949-59.949a7.273 7.273 0 0 0-10.285 10.285l49.664 49.664c8.84 8.84 8.84 23.172 0 32.012a22.582 22.582 0 0 1-5.721 4.152c8.504 4.341 19.176 2.964 26.292-4.152 8.839-8.84 8.839-23.172-.001-32.012z" opacity="1" data-original="#bb5d4c" class=""></path><path fill="#47ba43" d="M333.26 73.179a7.475 7.475 0 0 1-3.016-.637 176.047 176.047 0 0 0-4.423-1.877 7.501 7.501 0 0 1 5.681-13.883c1.593.652 3.202 1.335 4.781 2.03a7.5 7.5 0 0 1 3.845 9.885 7.5 7.5 0 0 1-6.868 4.482zm-148.963-2.343a7.501 7.501 0 0 1-2.805-14.458 197.52 197.52 0 0 1 4.844-1.878 7.501 7.501 0 0 1 5.241 14.055c-1.502.56-2.996 1.139-4.479 1.737a7.504 7.504 0 0 1-2.801.544zm113.883-9.197a7.53 7.53 0 0 1-1.649-.184c-1.559-.35-3.125-.68-4.699-.99a7.5 7.5 0 0 1 2.899-14.717c1.69.333 3.401.693 5.085 1.071a7.498 7.498 0 0 1 5.675 8.96 7.503 7.503 0 0 1-7.311 5.86zm-78.452-1.228a7.5 7.5 0 0 1-1.401-14.867 202.78 202.78 0 0 1 5.115-.91c4.083-.676 7.945 2.096 8.617 6.184a7.5 7.5 0 0 1-6.184 8.617c-1.583.261-3.16.541-4.73.841-.476.091-.95.135-1.417.135zm41.795-3.349c-.072 0-.143-.001-.215-.003-1.598-.045-3.2-.07-4.807-.074a7.5 7.5 0 0 1 .02-15h.02c1.735.004 3.466.031 5.19.08a7.5 7.5 0 0 1-.208 14.997z" opacity="1" data-original="#05e39c" class=""></path><path fill="#ffffff" d="M47.903 350.497a7.5 7.5 0 0 1-7.5-7.5v-2.06a7.5 7.5 0 0 1 15 0v2.06a7.5 7.5 0 0 1-7.5 7.5zM47.903 323.712a7.5 7.5 0 0 1-7.5-7.5v-2.06a7.5 7.5 0 0 1 15 0v2.06a7.5 7.5 0 0 1-7.5 7.5z" opacity="1" data-original="#ffffff" class=""></path></g></svg>