<svg xmlns="http://www.w3.org/2000/svg" version="1.1" xmlns:xlink="http://www.w3.org/1999/xlink" width="512" height="512" x="0" y="0" viewBox="0 0 512 512" style="enable-background:new 0 0 512 512" xml:space="preserve" class=""><g transform="matrix(1,0,0,1,2.842170943040401e-14,0)"><path fill="#1c2e7a" d="m133.566 472.775 9.474 6.055c31.047 14.23 65.575 22.172 101.962 22.172 41.259 0 80.126-10.214 114.238-28.228H133.566z" opacity="1" data-original="#1c2e7a" class=""></path><path fill="#40c2ff" d="m85.94 442.335 6.415 4.1h306.779c55.429-44.918 90.87-113.532 90.87-190.435 0-135.311-109.691-245.002-245.002-245.002-36.387 0-70.915 7.943-101.962 22.172L39.98 390.153a246.312 246.312 0 0 0 45.96 52.182z" opacity="1" data-original="#ffdd40" class=""></path><path fill="#167cc1" d="M353.741 33.17h-210.7C58.635 71.856 0 157.076 0 256c0 24.384 3.579 47.928 10.212 70.156h164.237v-24.124c0-7.677 5.988-14.226 13.634-14.91l1.366-.122v-33.744c0-12.108 9.851-21.959 21.959-21.959h176.477V67.315c0-18.828-15.317-34.145-34.144-34.145z" opacity="1" data-original="#167cc1" class=""></path><path fill="#73c3f9" d="M20.959 156.737c10.159 7.923 19.372 17.739 27.47 29.554 49.8 72.667 96.972 58.705 143.869 56.169 3.776-6.658 10.925-11.163 19.11-11.163h154.477V89.266H65.508c-18.344 19.74-33.472 42.505-44.549 67.471z" opacity="1" data-original="#73c3f9" class=""></path><path fill="#4fabf7" d="M96.818 89.267H65.509c-18.345 19.739-33.472 42.504-44.55 67.47 10.159 7.923 19.372 17.739 27.47 29.554 16.386 23.91 32.488 38.44 48.389 47.085z" opacity="1" data-original="#4fabf7" class=""></path><path fill="#9bd8f9" d="M242.1 131.827c45.018 55.099 85.266 68.743 123.785 68.921V89.266H192.099c18.303 10.192 35.087 24.308 50.001 42.561z" opacity="1" data-original="#9bd8f9" class=""></path><path fill="#2a428c" d="M353.741 55.17H104.658a246.358 246.358 0 0 0-41.011 36.096h302.238V67.315c0-6.583-5.561-12.145-12.144-12.145z" opacity="1" data-original="#2a428c"></path><path fill="#1c2e7a" d="M96.818 77.653a47.286 47.286 0 0 1 4.448-20.037C87.6 67.532 74.979 78.798 63.647 91.267h33.171z" opacity="1" data-original="#1c2e7a" class=""></path><path fill="#3c58a0" d="M73.848 80.718H250.82a7.5 7.5 0 0 0 0-15H90.68a246.659 246.659 0 0 0-16.832 15zM337.54 80.718h-9.775a7.5 7.5 0 0 1 0-15h9.775a7.5 7.5 0 0 1 0 15zM303.554 80.718h-9.776a7.5 7.5 0 0 1 0-15h9.776a7.5 7.5 0 0 1 0 15z" opacity="1" data-original="#3c58a0" class=""></path><path fill="#e9efff" d="M314.126 125.266h-91.292v26.286h91.292c7.259 0 13.143-5.884 13.143-13.143s-5.884-13.143-13.143-13.143z" opacity="1" data-original="#e9efff" class=""></path><path fill="#d3dcfb" d="M264.838 138.409c0-7.259 5.884-13.143 13.143-13.143h-55.146v26.286h55.146c-7.259 0-13.143-5.884-13.143-13.143z" opacity="1" data-original="#d3dcfb" class=""></path><path fill="#3c58a0" d="M223.835 125.266h-14.752c-7.259 0-13.143 5.884-13.143 13.143s5.884 13.143 13.143 13.143h14.752z" opacity="1" data-original="#3c58a0" class=""></path><path fill="#4fabf7" d="M50.078 185.16c-8.64-12.607-18.197-22.556-28.268-30.345C7.804 185.659 0 219.918 0 256c0 24.384 3.579 47.928 10.212 70.156h164.237v-24.124c0-7.677 5.988-14.226 13.634-14.91l1.366-.122v-33.744a21.84 21.84 0 0 1 4.186-12.875c-47.54 2.361-93.787 17.402-143.557-55.221z" opacity="1" data-original="#4fabf7" class=""></path><path fill="#1e9ef4" d="M96.818 231.162c-15.326-8.581-30.853-22.82-46.74-46.001-8.64-12.607-18.197-22.556-28.268-30.345C7.804 185.66 0 219.918 0 256c0 24.384 3.579 47.928 10.212 70.156h86.606z" opacity="1" data-original="#1e9ef4" class=""></path><path fill="#d3dcfb" d="M174.449 462.351v-74.198H94.824l-5.545 41.377a53.675 53.675 0 0 1-3.339 12.805 245.168 245.168 0 0 0 57.1 36.495h47.416v-1.5h-1.029c-8.259 0-14.978-6.719-14.978-14.979z" opacity="1" data-original="#d3dcfb" class=""></path><path fill="#bec8f7" d="M174.449 462.351v-74.198h-49.253l-1.651 2s14.653 7.85 14.653 22.85v31.824s.339 20.632-17.106 22.555a243.974 243.974 0 0 0 21.949 11.447h47.416v-1.5h-1.029c-8.26.001-14.979-6.718-14.979-14.978z" opacity="1" data-original="#bec8f7" class=""></path><path fill="#e9efff" d="M39.98 390.153h134.469v-65.997H9.617a243.791 243.791 0 0 0 30.363 65.997z" opacity="1" data-original="#e9efff" class=""></path><path fill="#d3dcfb" d="M96.818 347.325v-23.169H9.617c6.842 23.671 17.161 45.862 30.363 65.997h83.565c-15.795-7.808-26.727-24.1-26.727-42.828z" opacity="1" data-original="#d3dcfb" class=""></path><circle cx="141.514" cy="357.155" r="14.719" fill="#bec8f7" opacity="1" data-original="#bec8f7" class=""></circle><path fill="#167cc1" d="M475.826 229.797H211.408c-12.902 0-23.459 10.557-23.459 23.459v34.373c.486-.05.979-.075 1.479-.075h76.84c7.983 0 14.479 6.495 14.479 14.478v142.796H499.26c.013-.319.024-.638.024-.959V253.255c.001-12.902-10.556-23.458-23.458-23.458z" opacity="1" data-original="#167cc1" class=""></path><path fill="#0e62a8" d="M365.327 440.199c-11.808-11.466-7.694-24.113-3.673-31.233 1.618-2.865.479-6.536-2.504-7.924-14.8-6.887-12.288-21.044-10.738-26.322a5.647 5.647 0 0 0-.429-4.203l-14.27-27.359a5.473 5.473 0 0 0-1.63-1.919c-9.122-6.59-7.305-16.121-5.211-21.543.913-2.364.099-5.07-1.949-6.563-10.077-7.352-7.718-18.333-5.573-23.964.818-2.148.283-4.597-1.409-6.154-11.665-10.734-8.122-22.06-5.298-27.47 1.002-1.92.916-4.258-.315-6.039-4.303-6.227-2.478-12.194-.402-15.9a5.904 5.904 0 0 0 .69-3.808h-101.21c-12.903 0-23.459 10.557-23.459 23.459v34.372c.486-.049.98-.075 1.478-.075h76.84c7.983 0 14.479 6.495 14.479 14.478v142.796h86.251a5.63 5.63 0 0 0-1.668-4.629z" opacity="1" data-original="#0e62a8" class=""></path><path fill="#ff4155" d="M210.449 283.553v4h55.818c7.983 0 14.479 6.495 14.479 14.478v142.796h191.458a4.581 4.581 0 0 0 4.581-4.581V283.553z" opacity="1" data-original="#ff4155" class=""></path><path fill="#e80054" d="M210.449 287.553h55.818c7.983 0 14.479 6.495 14.479 14.478v142.796h86.251a5.637 5.637 0 0 0-1.67-4.629c-11.808-11.466-7.694-24.113-3.673-31.233 1.618-2.865.479-6.536-2.504-7.924-14.8-6.887-12.288-21.044-10.738-26.322a5.647 5.647 0 0 0-.429-4.203l-14.27-27.359a5.473 5.473 0 0 0-1.63-1.919c-9.122-6.59-7.305-16.121-5.211-21.543.913-2.364.099-5.07-1.949-6.563-10.077-7.352-7.718-18.333-5.573-23.964.73-1.915.376-4.067-.907-5.615H210.449z" opacity="1" data-original="#e80054" class=""></path><path fill="#e9efff" d="M503.904 443.828H280.746v18.523c0 7.984-6.495 14.479-14.479 14.479h-4.663v2h223.489c14.86 0 26.906-12.046 26.906-26.906a8.095 8.095 0 0 0-8.095-8.096z" opacity="1" data-original="#e9efff" class=""></path><path fill="#d3dcfb" d="M280.746 462.351c0 7.984-6.495 14.479-14.479 14.479h-4.663v2h107.202a5.614 5.614 0 0 0-1.336-1.857c-12.753-11.594-6.586-23.184-1.727-29.104a5.677 5.677 0 0 0 1.268-4.041h-86.266v18.523z" opacity="1" data-original="#d3dcfb" class=""></path><path fill="#ff7186" d="M472.204 252.297H215.03a4.581 4.581 0 0 0-4.581 4.581v28.675h266.336v-28.675a4.581 4.581 0 0 0-4.581-4.581z" opacity="1" data-original="#ff7186" class=""></path><path fill="#ff4155" d="M312.645 255.544a6.004 6.004 0 0 0 .66-3.247H215.03a4.581 4.581 0 0 0-4.581 4.581v28.675h109.043a5.496 5.496 0 0 0-1.549-2.539c-11.665-10.734-8.122-22.061-5.298-27.47z" opacity="1" data-original="#ff4155" class=""></path><path fill="#40c2ff" d="M266.267 471.33h-76.84c-9.086 0-16.479-7.392-16.479-16.479V294.532c0-9.087 7.392-16.479 16.479-16.479h76.84c9.086 0 16.479 7.392 16.479 16.479v160.319c0 9.087-7.393 16.479-16.479 16.479z" opacity="1" data-original="#ffdd40" class=""></path><path fill="#ffb332" d="M233.26 294.525h7.55v-16.471h-51.382c-9.086 0-16.479 7.392-16.479 16.479v160.319c0 9.087 7.392 16.479 16.479 16.479h43.833c-9.086 0-16.479-7.392-16.479-16.479V311.003c-.001-9.086 7.391-16.478 16.478-16.478z" opacity="1" data-original="#ffb332" class=""></path><path fill="#fcf2c8" d="M201.119 344.915h-2.762c-4.142 0-7.5-3.357-7.5-7.5s3.358-7.5 7.5-7.5h2.762a7.5 7.5 0 0 1 0 15zM201.119 373.741h-2.762a7.5 7.5 0 0 1 0-15h2.762a7.5 7.5 0 0 1 0 15zM201.119 402.567h-2.762a7.5 7.5 0 0 1 0-15h2.762a7.5 7.5 0 0 1 0 15zM201.119 431.393h-2.762c-4.142 0-7.5-3.357-7.5-7.5s3.358-7.5 7.5-7.5h2.762c4.142 0 7.5 3.357 7.5 7.5s-3.358 7.5-7.5 7.5zM257.338 344.915h-33.057c-4.142 0-7.5-3.357-7.5-7.5s3.358-7.5 7.5-7.5h33.057a7.5 7.5 0 0 1 0 15zM257.338 373.741h-33.057a7.5 7.5 0 0 1 0-15h33.057a7.5 7.5 0 0 1 0 15zM257.338 402.567h-33.057a7.5 7.5 0 0 1 0-15h33.057a7.5 7.5 0 0 1 0 15zM257.338 431.393h-33.057c-4.142 0-7.5-3.357-7.5-7.5s3.358-7.5 7.5-7.5h33.057c4.142 0 7.5 3.357 7.5 7.5s-3.358 7.5-7.5 7.5z" opacity="1" data-original="#fcf2c8" class=""></path><path fill="#167cc1" d="M266.267 270.553h-76.84c-13.221 0-23.978 10.757-23.978 23.979v160.319c0 13.222 10.757 23.978 23.978 23.978h76.84c13.222 0 23.979-10.757 23.979-23.978V294.532c0-13.222-10.757-23.979-23.979-23.979zm8.979 184.298a8.978 8.978 0 0 1-8.979 8.978h-76.84a8.979 8.979 0 0 1-8.978-8.978v-160.32a8.979 8.979 0 0 1 8.979-8.979h13.833c.891 0 1.614.722 1.614 1.613 0 5.277 4.317 9.594 9.594 9.594h26.758c5.277 0 9.594-4.317 9.594-9.594 0-.891.722-1.613 1.614-1.613h13.833a8.979 8.979 0 0 1 8.979 8.979v160.32z" opacity="1" data-original="#167cc1" class=""></path><circle cx="343.617" cy="360.913" r="47.724" fill="#e9efff" transform="rotate(-79 343.545 360.776)" opacity="1" data-original="#e9efff" class=""></circle><path fill="#d3dcfb" d="M359.15 401.041c-14.8-6.887-12.288-21.044-10.738-26.322a5.647 5.647 0 0 0-.429-4.203l-14.27-27.359a5.473 5.473 0 0 0-1.63-1.919c-9.122-6.59-7.305-16.121-5.211-21.543a5.57 5.57 0 0 0 .151-3.538c-18.177 6.741-31.132 24.234-31.132 44.756 0 26.357 21.367 47.724 47.724 47.724a47.562 47.562 0 0 0 18.619-3.77c-.376-1.621-1.451-3.066-3.084-3.826z" opacity="1" data-original="#d3dcfb" class=""></path><path fill="#ff4155" d="m363.469 357.242-26.786-15.096c-2.809-1.583-6.283.447-6.283 3.671v30.192c0 3.224 3.474 5.254 6.283 3.671l26.786-15.096c2.86-1.611 2.86-5.73 0-7.342z" opacity="1" data-original="#ff4155" class=""></path><path fill="#0e62a8" d="M219.453 463.83h-30.026a8.979 8.979 0 0 1-8.978-8.978v-160.32a8.979 8.979 0 0 1 8.979-8.979h13.833c.891 0 1.614.722 1.614 1.613 0 5.277 4.317 9.594 9.594 9.594h10.525c-10.643-12.449-2.065-23.378.564-26.207h-36.13c-13.221 0-23.978 10.757-23.978 23.979v160.319c0 13.222 10.757 23.978 23.978 23.978h28.179c-5.466-7.769 1.173-14.363 1.846-14.999z" opacity="1" data-original="#0e62a8" class=""></path></g></svg>