<svg id="Layer_1" enable-background="new 0 0 180 180" viewBox="0 0 180 180" xmlns="http://www.w3.org/2000/svg"><g id="_x31_5"><g><path d="m157.5379639 132.4289703c1.5937195-2.4664612 2.5243988-5.604805 1.5041656-8.3584061-2.0223389-5.4582367-11.4702759-8.129776-15.28125-2.6411285-1.1251373 1.6204529-1.6581726 4.0833054-.8249359 5.87146-.3910217-.9278259-1.3374939-1.5949554-2.3427734-1.6513367s-2.0782776.3593445-2.5706024 1.2376251c-.8746185-2.1681519-3.2773895-3.6115036-5.6023102-3.3653336s-4.6950684 1.8883362-5.0962448 4.1915817c-.6846313-1.2688217-2.0046997-2.2395172-3.4460831-2.2716751-1.441391-.0321503-2.7891541 1.023056-2.9944458 2.4501114-5.2366028-2.3393555-9.5475616-6.6829605-11.8473511-11.9370575l-4.4862671 3.9324493c1.7675476 1.8570404 3.5443802 3.7255707 4.9727173 5.8545761 1.4283447 2.1290054 2.9130173 4.7284088 3.1219025 7.2836304-1.2652512-.2151947-2.6291046.5569305-3.0956421 1.7525482-.4665451 1.1956329.1989212 3.2611694 1.2755356 3.9597931-1.3618088-.1605835-2.7883072.412735-3.6602249 1.4710693-.8719254 1.0583191-1.1616745 2.568161-.7434616 3.8740845.4182053 1.3059082 1.8156738 2.3514252 3.1401901 2.7063751-.6592865.3992004-1.1273499 1.100174-1.2434006 1.8621216-.1160507.7619324.4592743 1.5314941.9698181 2.1088867-2.9173126.55867-4.2181473 4.0767059-3.9415512 6.7780304.2619476 2.5582733 1.7137527 4.8841553 3.5922089 6.6405029 1.1772308 1.100708 2.5212555 2.0049286 3.9185486 2.8010254 8.101265 4.6156158 17.5603027-.4508667 18.2010193-8.5677338 3.1428223.9118652 6.5716858 1.8134613 9.5934601.5573883 2.2514038-.9358368 3.918808-2.9915466 4.7571106-5.2810516.8383179-2.289505.9184875-4.7967072.6484528-7.2198639 2.5791779 1.5525208 5.756134 1.1339417 8.2390442-.5682983 2.4829254-1.7022552 3.834259-4.9128265 3.3159943-7.8782959.8253784.6315918 1.760025 1.3717499 2.7798004 1.1712189 2.8647614-.5632935 4.0276337-4.1633148 1.8410797-6.2237701-1.1017-1.0381774-3.1686403-1.4488219-4.6945039-.5405273z" fill="#71d8f8"/></g><g><path d="m121.2262039 149.7697601c-2.0440521-.2711487-4.1948166.9649048-4.9895935 2.8675232-.7947769 1.9026337-.162323 4.3013 1.4672394 5.5647125-.5423126-1.690155-.2589035-3.4935455.4605408-5.1162415.7194442-1.6226806 1.4451751-2.5830382 3.0618133-3.3159942z" fill="#50c9eb"/></g><g><path d="m130.0095367 145.4165192c-1.7897491-1.6187134-4.2289505-2.2804108-6.2896347-1.7062225s-3.6817856 2.3672638-4.1801071 4.6235352c-.4983215 2.2562561.1409073 4.9088745 1.6482849 6.8399048-.9488754-2.9187775-.331192-6.0882416 1.5071869-8.0689392 1.8383866-1.9806978 4.641716-2.7499544 7.31427-1.6882783z" fill="#50c9eb"/></g><g><path d="m144.462677 137.5036469c-1.4222565-1.1095276-3.5266571-1.2535706-5.0868225-.3481598-1.5601654.9053955-2.4791718 2.8039856-2.2214661 4.5893402.6389313-1.4437103 1.7987213-2.530426 3.1690979-3.3144073 1.3703614-.7839814 2.5708161-1.1076966 4.1391907-.9267731z" fill="#50c9eb"/></g><g><path d="m132.6196899 131.4139862c-1.4222565-1.1095276-3.5266571-1.2535706-5.0868225-.3481598s-2.4791794 2.8040009-2.2214661 4.5893402c.6389389-1.4437103 1.7987289-2.530426 3.1690979-3.3144073 1.3703614-.7839661 2.5708161-1.1076966 4.1391907-.9267731z" fill="#50c9eb"/></g><g><path d="m150.6409607 135.0839691c-.6786652-1.2062225-1.9110413-2.0858307-3.2723541-2.3356323-2.9028931-.5326691-5.594101 1.7141724-5.5900421 4.6641541.799469-1.5265198 2.3959503-2.2674408 4.084198-2.6127625 1.6882476-.3453369 3.121231-.1889496 4.7781982.2842407z" fill="#50c9eb"/></g><g><path d="m98.1591415 110.1901398c-1.5304565 2.5575638-1.2854462 6.4740753 2.0923843 10.0348282 1.2636566 1.3320923 2.7623367 2.4183884 4.2973251 3.4259186-.7952728-1.0871658-1.2440033-2.325119-1.4592514-3.654808 2.580986 3.1988678 6.9896851 4.8747025 11.0545425 4.2654572-1.4819031-1.6422424-.4177246-4.4852448-.7531052-6.5848999-.2831345-1.7725525-1.4606552-3.2521896-2.5965576-4.6420975 1.3916473-.1194 2.7654114.7042923 3.5272217 1.8750153.0707779-2.7276077-1.0806808-5.5129089-3.1287155-7.3157959-2.0480423-1.802887-4.9120255-2.6399918-7.6086426-2.2239075" fill="#ffa20d"/></g><g><path d="m99.1429443 109.1773911c-.462883 2.8430481.5279846 5.884407 2.576767 7.9091568.1693649-.9081039.4531937-1.7951736.2804947-2.702652 1.0627899 1.8684235 2.8967209 3.1787872 4.9884109 3.6741104.857811.2031403 2.323761.3211594 2.8514175 1.3864212.1778412-2.9038467-.8359146-5.9365768-2.6676712-8.1968002.8269119-.4716492 1.8471985-.6163559 2.6551666-.1129456-1.3410339-2.828537-4.2580338-4.8336029-7.3714371-5.1587067" fill="#ffde9b"/></g><g><path d="m105.7601013 107.4713745-6.8864975 5.0463257c-.5535049.4055939-1.2956009.4418793-1.8860321.0922089l-5.0779419-3.0072937 13.1687698-9.6498795 1.3378143 5.7480011c.1555558.6683426-.1026076 1.365036-.6561126 1.7706375z" fill="#f3b2a1"/></g><g><path d="m98.8382721 80.1484604 8.6205063 11.7640152c2.1322098 2.9097366 1.4225006 6.919632-1.3842545 8.9763794l-13.5723495 9.9456253c-2.8633347 2.0982132-6.8782501 1.4789734-8.9763794-1.3842545l-8.6205063-11.7640228z" fill="#70444d"/></g><g><path d="m98.8382721 80.1484604 8.6205063 11.7640152c2.0222168 2.7596359 1.5219955 6.600563-1.1060333 8.7435226.0025177-.0163345-.0043945-.0257645-.0112991-.0351868-3.9746857-8.7364807-12.0460968-10.9281921-19.6487656-6.9398575-3.5637207 1.8731308-6.4204254 4.8495178-8.7506104 8.1494141l-3.0367813-4.144165z" fill="#5b353d"/></g><g><path d="m97.1249008 56.316288c-.1822586 7.3572617-6.0121918 18.3464241 1.7133713 23.8321724l-23.9329834 17.5377426c-2.1202927-6.567688-9.1006546-7.2431335-15.623333-7.9065475-2.7783394-.294754-5.4749985-.5769043-7.6736526-1.3254242-27.416996-9.2239151-26.2021637-50.039959-1.0554657-61.2000961.0890083-.0362434.1619148-.0751762.2580643-.1021614 19.8844947-8.6213017 46.8764076 6.2847938 46.3139991 29.1643142z" fill="#ebf2ff"/></g><g><path d="m97.1249008 56.316288c-.1822586 7.3572617-6.0121918 18.3464241 1.7133713 23.8321724l-23.9329834 17.5377426c-2.1202927-6.567688-9.1006546-7.2431335-15.623333-7.9065475 6.5508156-.1677933 13.0822868-3.0286636 17.6195488-7.8011475 6.4299011-6.7527847 8.882431-16.8593979 6.9892883-25.9820061-1.9000549-9.1320343-7.8923492-17.1908035-15.6922836-22.3034439-5.2190628-3.4282322-11.2046051-5.5709782-17.3876076-6.5410862 19.8844948-8.6212997 46.8764077 6.2847958 46.3139992 29.1643162z" fill="#dbe6fa"/></g><g><g><circle cx="62.366" cy="55.618" fill="#ffa20d" r="23.453"/></g><g><circle cx="61.781" cy="56.047" fill="#ffde9b" r="16.303"/></g><g><g><path d="m67.3847427 55.2195511c1.1175308 1.3186378 1.4493866 3.2524719.8436203 4.8671074-.1270447.3561974-.303688.6895256-.5046234 1.0077362.3566513.4687386.705864.936306 1.0593338 1.400753.0407639.0556297.084671.1155472.080658.1908226-.0114365.0741768-.0693512.1297417-.1261292.1779327-.2142334.1833191-.4242249.3634911-.6384964.5468025-.4607315.4034119-.9234772.7951355-1.4438324 1.1172256-.0961227.0572739-.1953964.1103058-.2983398.1134109-.1115265.009346-.221344-.0417328-.3085709-.1159058-.0895386-.0593567-.1596756-.1460876-.2329102-.2370987-.2742691-.3383484-.5379562-.6712837-.8048019-1.0084839-.1320724.0441513-.2610016.0925903-.3856506.137886-.5964432.2002983-1.2122574.3292847-1.8399963.388092-.2889481.0275612-.5775833.0285988-.8681946.017952-.1346283-.0131836-.2712288-.0380478-.4027023-.0469246-.1388893-.0100212-.2669258-.0411644-.3741341-.1336136-.1103477-.0967369-.1419907-.2116814-.1935463-.3448715-.0464592-.1172523-.0874748-.2450447-.1296349-.3654099-.0780563-.232193-.146431-.4780655-.2011032-.7142296-.0558395-.2287636-.1030884-.4637833-.1397972-.6933975-.0250511-.1329041-.0543594-.2626877-.0677261-.3976097-.0148048-.1009521.0576897-.2264099.137001-.2976952.1049843-.0900993.2313423-.097187.3650932-.1031113.1369019-.0016861.2717972-.0150299.4055748-.0209732.1317863-.0176468.2604065-.0395584.3953285-.0529251l.0042572-.0031204c.1286659-.021904.2615662-.0469551.3882179-.0805931.5042763-.1195946.9872284-.3221931 1.4234047-.6155243.3217926-.216053.6207848-.4811935.8787193-.7754593.2858887-.3278809.5561295-.7758408.4037094-1.1903114-.171814-.4857559-.7781219-.6399994-1.2991791-.6330338-1.6448021.008255-3.2736282.7743073-4.8823776.4996262-.0593109-.0091248-.1217842-.0225563-.1810913-.0317268-1.6406822-.3630753-2.8947639-1.9039268-3.096962-3.5710373-.1524315-1.1773834.1771049-2.3791313.8217659-3.3842697-.3680229-.4932404-.7434883-.9876518-1.1189079-1.4820557-.0376282-.0513496-.084671-.115551-.0818062-.183403.0114555-.0741501.0682335-.1223412.1218452-.1747932.2099915-.180172.4156837-.357235.6299324-.5405273.4541817-.3854446.9063873-.7825699 1.4244308-1.0898476.0918694-.0541534.179451-.1051636.2909622-.1145401.1072311-.006237.210762.0362778.3022957.1073341.0841103.0699158.1510925.1523399.2180939.2347946.1245651.1520691.2511482.3158264.3800201.4647408.1465149.1820297.289917.3597565.4364586.5417633.4213104-.1969299.8654213-.3447762 1.3249474-.4447441.2264519-.0409737.4560661-.0776825.6950798-.1015701.1115303-.0093498.2273254-.021862.3493996-.0258102.0955238-.0042458.2315903-.025032.3256989.0046768.0550499.012291.1066475.0468178.1422806.0864639.0399361.0365295.0701408.0867348.0917816.1432152.0122643.0436401.0404778.0821381.0527191.1257935.0550079.1109505.0994759.2164993.1396599.3251877.0909081.2227745.1626892.4463997.2344704.6700287.1319008.4492531.2190018.9181671.2690353 1.3813705.0093765.1115112.0480995.2541428-.0092506.3553429-.0465317.0801392-.1326561.0972061-.2164993.0994759-.0955696.0042343-.1879807.0127792-.2846642.0244217-.4249725.0483513-.8434105.1773834-1.2253914.3652039-.392498.1824036-.7559547.4224052-1.065773.7086487-.3278046.2796669-.6231613.6934052-.5132103 1.1127014.1219025.4894562.7193527.6764832 1.2139053.6692314.8311005-.0236473 1.6172562-.3958473 2.4307365-.5513.8719521-.1653824 1.7877083-.0735092 2.6204033.2371101.0867081.0285454.1690979.0602226.2472458.095047.687523.2920304 1.3065569.7328873 1.7872163 1.3080178z" fill="#ffa20d"/></g></g></g><g><g><path d="m39.7528114 28.7260494-3.3662109-4.5947266c-.4892578-.6689453-.3447266-1.6074219.3232422-2.0966797.6689453-.4882813 1.6064453-.3457031 2.0966797.3232422l3.3662109 4.5947266c.4892578.6689453.3447266 1.6074219-.3232422 2.0966797-.6687202.4881172-1.6050415.3464317-2.0966797-.3232422z" fill="#ffb63c"/></g><g><path d="m71.3573074 19.6342525c-.7949219-.234375-1.25-1.0683594-1.0166016-1.8623047l1.5966797-5.4287109c.234375-.7958984 1.0751953-1.2460938 1.8623047-1.0166016.7949219.234375 1.25 1.0683594 1.0166016 1.8623047l-1.5966797 5.4287109c-.2350006.7992326-1.0711136 1.247366-1.8623047 1.0166016z" fill="#ffb63c"/></g><g><path d="m94.1942215 35.2758522c-1.5210876 0-2.074585-2.0142059-.7666016-2.7900391l5.0166016-2.9785137c.7128906-.421875 1.6328125-.1884766 2.0556641.5244141.4228516.7119141.1884766 1.6328125-.5244141 2.0556622l-5.0166016 2.9785156c-.2402343.1425781-.5039062.2099609-.7646484.2099609z" fill="#ffb63c"/></g><g><path d="m106.0985184 64.7787857-3.8125-.9355507c-.8046875-.1972656-1.296875-1.0097656-1.0996094-1.8144531.1972656-.8037109 1.0078125-1.2958984 1.8144531-1.0996094l3.8125.9355469c.8046875.1972656 1.296875 1.0097656 1.0996094 1.8144531-.1977997.8061409-1.0114136 1.295475-1.8144531 1.0996132z" fill="#ffb63c"/></g><g><path d="m23.2772255 55.2153053-5.1757813-.1035156c-.828125-.0166016-1.4863281-.7021484-1.4697266-1.5302734.0166016-.8173828.6845703-1.4697266 1.4990234-1.4697266h.03125l5.1757813.1035156c.828125.0166016 1.4863281.7021484 1.4697266 1.5302734-.0158176.7787972-.6346111 1.4697266-1.5302734 1.4697266z" fill="#ffb63c"/></g><g><path d="m27.2420692 85.0063248c-1.3738556 0-2.023962-1.7035599-1-2.6191406l4.1708984-3.7255859c.6191406-.5507813 1.5654297-.4970703 2.1181641.1201172.5517578.6171875.4980469 1.5654297-.1201172 2.1181641l-4.1708984 3.7255859c-.2861328.2548827-.6425781.3808593-.9980469.3808593z" fill="#ffb63c"/></g><g><path d="m55.8621864 102.3461685c-.0332031 0-.0664063-.0009766-.1005859-.0029297-.8261719-.0546875-1.4521484-.7685547-1.3984375-1.5957031l.2880859-4.3886719c.0546875-.8261719.7441406-1.4414063 1.5957031-1.3984375.8261719.0546875 1.4521484.7685547 1.3984375 1.5957031l-.2880859 4.3886719c-.0527344.7929688-.711914 1.4013672-1.4951172 1.4013672z" fill="#ffb63c"/></g></g><g><path d="m107.1532669 90.1307068-25.2334595 18.4907227c-.9391327.6881866-2.2583313.4847488-2.9465103-.4543839l-.4179077-.5702972c-.688179-.9391251-.4847412-2.2583237.4543915-2.9465103l25.2334595-18.490715c.9391251-.6881866 2.2583237-.4847488 2.9465103.4543839l.4179001.5702896c.688179.9391326.4847488 2.2583312-.4543839 2.9465102z" fill="#512e35"/></g><g opacity=".8"><g><path d="m32.4736786 60.152771c.6335754 4.0484467 2.1442528 7.9775467 4.3492851 11.430069.6329155.9909821 2.0292397 1.4836121 3.0784302.8071899.9912491-.6390762 1.4848671-2.0173569.8071899-3.0784302-1.9533157-3.0583954-3.2526855-6.2466621-3.895649-10.3551064-.1825523-1.1664696-1.7025566-1.9162064-2.7677689-1.5714912-1.2680167.410347-1.7671126 1.5177575-1.5714873 2.7677689z" fill="#fff"/></g></g><g opacity=".8"><g><path d="m42.4620361 78.5483322c.448597.5010757.6775932.8448334 1.2227135 1.0221634.8135223.4273987 1.9048996.2505035 2.8096886-.9206009.4136505-.7132263.296978-1.2116394.2268181-1.733757-.182148-.6494522-.5070038-.9128418-1.07724-1.5497818-.5471878-.5891113-1.6495628-.8898926-2.4578705-.4652328-.8582954.2792053-1.5041885 1.1552124-1.3027496 2.6543579.106903.3811645.2997817.7121124.5786399.9928512z" fill="#fff"/></g></g><g opacity=".4"><g><path d="m90.1168289 109.3879929c3.6329269-2.8961563 4.3343582-2.7726288 4.5964432-3.72435.3760605-1.3656006-1.2033463-2.3558273-2.2034912-1.6939621-1.5550003 1.0290451-3.0563431 2.1347351-4.5142746 3.2969894-.2807312.2238007-.4393387.7190857-.4393387 1.0606613 0 .8694458.7607117 1.5331116 1.5 1.5.3405762-.0457611.6745148-.0557861 1.0606613-.4393386z" fill="#fff"/></g></g><g opacity=".4"><g><path d="m98.0228958 103.8638687c1.0812454-.5762253 1.3014145-.6405945 1.5140915-.968956.6028442-.6587372.4706116-2.187355-1.1779327-2.4088669-.4665527.0014496-.6076431.1251526-1.8503189.7874069-.6859665.3699036-.9694595 1.3747787-.5381241 2.0522842.6767807.8759843 1.4709701.8752748 2.0522842.5381318z" fill="#fff"/></g></g><g opacity=".4"><g><path d="m107.6583633 155.5622101c-.3574753 4.5952454 2.7886658 8.8555145 7.1755524 10.0924988 1.1320572.3191986 2.499054-.3917236 2.7677689-1.5715027.2722473-1.1952667-.3590317-2.4258881-1.5714874-2.7677612-2.6882248-.7579956-4.0661087-3.2558289-3.8718338-5.7532349.091507-1.1763-1.1002502-2.3014984-2.25-2.25-1.2972642.0581055-2.15197.9899444-2.2500001 2.25z" fill="#fff"/></g></g><g opacity=".4"><g><path d="m121.4590683 165.7920227c1.5456467-.2076874 2.2470703-1.1304016 2.2864227-1.9981232.1827774-.8161469-.158989-1.8556671-1.6116714-2.4687042-.1000748-.026886-1.7953491.0133057-1.8957977.0357971-.8983612.040741-1.7514038.7249298-1.9509277 2.2098083.0031738 1.0210266.6761246 1.8959808 1.6518631 2.169632.9462356.1569825 1.0138396.1196137 1.520111.05159z" fill="#fff"/></g></g></g></svg>