<svg id="Layer_1" enable-background="new 0 0 512 512" height="512" viewBox="0 0 512 512" width="512" xmlns="http://www.w3.org/2000/svg"><g><path d="m43.43 388.9h425.14c20.632-35.901 32.432-77.523 32.432-121.901 0-135.311-109.691-245.002-245.002-245.002s-245.002 109.69-245.002 245.001c0 44.378 11.8 86.001 32.432 121.902z" fill="#88ce65"/><path d="m160.096 57.122c0 17.997-14.59 32.587-32.587 32.587h319.92v-32.587z" fill="#becaf5"/><path d="m43.43 57.122v32.587h86.12c17.997 0 32.587-14.59 32.587-32.587z" fill="#3c58a0"/><path d="m447.429 265.812v-178.144h-308.511s-16.556 21.362 5.194 37.754v108.541s-20.296 15.623 0 33.542v25.509 191.993c33.541 17.25 71.576 26.993 111.888 26.993 1.21 0 2.412-.028 3.618-.046-.156-.983-.251-1.986-.251-3.012v-243.13z" fill="#deeeff"/><path d="m43.43 87.668v301.232c23.906 41.597 59.673 75.508 102.682 97.129v-193.014-25.509c-20.296-17.919 0-33.542 0-33.542v-108.542c-21.75-16.392-5.194-37.754-5.194-37.754z" fill="#d3dcfb"/><path d="m411.84 0h-257.51s-9.571 9.993 0 19.563l1.306 19.012s-8.141 12.315 4.46 20.444h287.333v-23.43c0-19.574-16.015-35.589-35.589-35.589z" fill="#2a428c"/><path d="m79.019 0c-19.574 0-35.589 16.015-35.589 35.589v23.43h118.707c-12.601-8.129-4.46-20.444-4.46-20.444l-1.306-19.012c-9.571-9.571 0-19.563 0-19.563h-77.352z" fill="#1c2e7a"/><path d="m98.698 29.51c0 6.336-5.136 11.472-11.472 11.472s-11.472-5.136-11.472-11.472 5.136-11.472 11.472-11.472c6.336-.001 11.472 5.136 11.472 11.472z" fill="#ff4155"/><path d="m130.418 29.51c0 6.336-5.136 11.472-11.472 11.472s-11.473-5.136-11.473-11.472 5.137-11.472 11.473-11.472 11.472 5.136 11.472 11.472z" fill="#ffdd40"/><ellipse cx="150.664" cy="29.51" fill="#88ce65" rx="11.472" ry="11.472" transform="matrix(.707 -.707 .707 .707 23.262 115.179)"/><path d="m260.428 29.51c0-4.227 3.426-7.653 7.653-7.653h-68.27c-4.227 0-7.653 3.426-7.653 7.653s3.426 7.653 7.653 7.653h68.27c-4.227 0-7.653-3.426-7.653-7.653z" fill="#3c58a0"/><path d="m323.596 29.51c0-4.227-3.426-7.653-7.653-7.653h-49.903c-4.227 0-7.653 3.426-7.653 7.653s3.426 7.653 7.653 7.653h49.903c4.227 0 7.653-3.426 7.653-7.653z" fill="#6289cc"/><g><path d="m408.432 37.163h-9.975c-4.227 0-7.653-3.426-7.653-7.653s3.426-7.653 7.653-7.653h9.975c4.226 0 7.653 3.426 7.653 7.653s-3.426 7.653-7.653 7.653z" fill="#6289cc"/></g><g><path d="m373.753 37.163h-9.976c-4.227 0-7.653-3.426-7.653-7.653s3.426-7.653 7.653-7.653h9.976c4.227 0 7.653 3.426 7.653 7.653s-3.426 7.653-7.653 7.653z" fill="#3c58a0"/></g><path d="m399.36 125.422h-255.248v108.541s-.004.003-.005.003h255.253c5.696 0 10.314-4.618 10.314-10.314v-87.916c0-5.696-4.618-10.314-10.314-10.314z" fill="#6d59c8"/><path d="m81.184 135.737v87.916c0 5.697 4.618 10.314 10.314 10.314h54.609c.001-.001.005-.003.005-.003v-108.542h-54.614c-5.696 0-10.314 4.618-10.314 10.315z" fill="#5c45bf"/><path d="m448.428 223.996h-124.131c-2.672 2.941-9.51 11.51-9.188 21.9.205 6.617 3.282 12.685 9.15 18.054-.405.495-.902 1.138-1.438 1.903h145.749v-21.715c0-11.078-9.064-20.142-20.142-20.142z" fill="#2a428c"/><path d="m326.372 223.996h-48.863c-11.078 0-20.142 9.064-20.142 20.142v21.715h67.282c.993-1.304 1.723-2.041 1.723-2.041-21.99-18.668 0-39.816 0-39.816z" fill="#1c2e7a"/><g><path d="m154.746 293.015h-58.398c-7.044 0-12.755-5.711-12.755-12.755s5.711-12.755 12.755-12.755h58.398c7.044 0 12.755 5.711 12.755 12.755s-5.711 12.755-12.755 12.755z" fill="#3c58a0"/></g><g><path d="m220.286 326.89h-129.04c-4.227 0-7.653-3.426-7.653-7.653s3.426-7.653 7.653-7.653h129.04c4.227 0 7.653 3.426 7.653 7.653s-3.426 7.653-7.653 7.653z" fill="#becaf5"/></g><g><path d="m220.286 357.744h-129.04c-4.227 0-7.653-3.426-7.653-7.653s3.426-7.653 7.653-7.653h129.04c4.227 0 7.653 3.426 7.653 7.653s-3.426 7.653-7.653 7.653z" fill="#becaf5"/></g><g><path d="m220.286 388.597h-129.04c-4.227 0-7.653-3.426-7.653-7.653s3.426-7.653 7.653-7.653h129.04c4.227 0 7.653 3.426 7.653 7.653s-3.426 7.653-7.653 7.653z" fill="#becaf5"/></g><g><path d="m220.286 419.451h-129.04c-4.227 0-7.653-3.426-7.653-7.653s3.426-7.653 7.653-7.653h129.04c4.227 0 7.653 3.426 7.653 7.653s-3.426 7.653-7.653 7.653z" fill="#becaf5"/></g><path d="m220.286 434.998h-129.04c-3.729 0-6.83 2.668-7.511 6.198 3.159 3.124 6.405 6.159 9.729 9.108h126.822c4.227 0 7.653-3.426 7.653-7.653 0-4.228-3.426-7.653-7.653-7.653z" fill="#becaf5"/><path d="m220.286 465.851h-107.413c7.699 5.551 15.735 10.663 24.068 15.306h83.345c4.227 0 7.653-3.426 7.653-7.653s-3.426-7.653-7.653-7.653z" fill="#becaf5"/><path d="m307.028 244.925c0 6.054-4.907 10.961-10.961 10.961s-10.961-4.908-10.961-10.961c0-6.054 4.908-10.961 10.961-10.961 6.054 0 10.961 4.907 10.961 10.961z" fill="#ff4155"/><path d="m337.333 244.925c0 6.054-4.907 10.961-10.961 10.961-6.053 0-10.961-4.908-10.961-10.961 0-6.054 4.908-10.961 10.961-10.961 6.054 0 10.961 4.907 10.961 10.961z" fill="#ffdd40"/><path d="m367.638 244.925c0 6.054-4.907 10.961-10.961 10.961s-10.961-4.908-10.961-10.961c0-6.054 4.907-10.961 10.961-10.961s10.961 4.907 10.961 10.961z" fill="#88ce65"/><path d="m324.115 263.812c.049.046.095.092.145.138-3.433 4.188-13.314 18.705.612 33.128v79.039c-1.581 1.569-6.24 6.782-6.472 13.905-.166 5.151 2.01 10.107 6.472 14.736v76.025c-.798 1.57-3.589 7.802-1.555 14.699.659 2.235 1.777 4.287 3.293 6.171 60.466-18.164 111.097-59.052 141.96-112.754v-125.087z" fill="#6d59c8"/><path d="m257.367 263.812v243.129c0 1.739.247 3.42.666 5.032 24.386-.199 47.92-3.965 70.113-10.793-7.922-9.224-1.774-20.025-1.774-20.025v-77.012c-14.58-14.58 0-27.384 0-27.384v-80.297c-16.295-16.295 0-32.652 0-32.652h-69.005z" fill="#5c45bf"/><path d="m427.043 296.465h-102.732c.188.204.364.409.561.613v79.039c-.171.17-.384.391-.618.644h102.789c4.901 0 8.874-3.973 8.874-8.874v-62.548c0-4.901-3.973-8.874-8.874-8.874z" fill="#deeeff"/><path d="m290.019 305.339v62.548c0 4.901 3.973 8.874 8.874 8.874h27.48v-80.297h-27.48c-4.901.001-8.874 3.974-8.874 8.875z" fill="#becaf5"/><g><path d="m427.489 419.451h-129.04c-4.227 0-7.653-3.426-7.653-7.653s3.426-7.653 7.653-7.653h129.04c4.227 0 7.653 3.426 7.653 7.653s-3.427 7.653-7.653 7.653z" fill="#8073dd"/></g><g fill="#8073dd"><path d="m432.515 436.889c-1.345-1.175-3.1-1.892-5.026-1.892h-129.04c-4.227 0-7.653 3.426-7.653 7.653s3.426 7.653 7.653 7.653h120.087c4.833-4.288 9.499-8.76 13.979-13.414z"/><path d="m298.448 465.851c-4.227 0-7.653 3.426-7.653 7.653s3.426 7.653 7.653 7.653h76.611c8.334-4.643 16.369-9.754 24.068-15.306z"/></g></g></svg>