<svg id="visual" viewBox="0 0 900 600" width="900" height="600" xmlns="http://www.w3.org/2000/svg" xmlns:xlink="http://www.w3.org/1999/xlink" version="1.1"><rect x="0" y="0" width="900" height="600" fill="#ffffff"></rect><path d="M0 74L21.5 75C43 76 86 78 128.8 85C171.7 92 214.3 104 257.2 108.8C300 113.7 343 111.3 385.8 108.3C428.7 105.3 471.3 101.7 514.2 100C557 98.3 600 98.7 642.8 94C685.7 89.3 728.3 79.7 771.2 76.2C814 72.7 857 75.3 878.5 76.7L900 78L900 601L878.5 601C857 601 814 601 771.2 601C728.3 601 685.7 601 642.8 601C600 601 557 601 514.2 601C471.3 601 428.7 601 385.8 601C343 601 300 601 257.2 601C214.3 601 171.7 601 128.8 601C86 601 43 601 21.5 601L0 601Z" fill="#0066ff"></path><path d="M0 166L21.5 167.2C43 168.3 86 170.7 128.8 170.5C171.7 170.3 214.3 167.7 257.2 168.2C300 168.7 343 172.3 385.8 168C428.7 163.7 471.3 151.3 514.2 150.3C557 149.3 600 159.7 642.8 162.5C685.7 165.3 728.3 160.7 771.2 162C814 163.3 857 170.7 878.5 174.3L900 178L900 601L878.5 601C857 601 814 601 771.2 601C728.3 601 685.7 601 642.8 601C600 601 557 601 514.2 601C471.3 601 428.7 601 385.8 601C343 601 300 601 257.2 601C214.3 601 171.7 601 128.8 601C86 601 43 601 21.5 601L0 601Z" fill="#2b5edf"></path><path d="M0 220L21.5 222.7C43 225.3 86 230.7 128.8 229.2C171.7 227.7 214.3 219.3 257.2 211.8C300 204.3 343 197.7 385.8 196.5C428.7 195.3 471.3 199.7 514.2 200.5C557 201.3 600 198.7 642.8 202.2C685.7 205.7 728.3 215.3 771.2 216.3C814 217.3 857 209.7 878.5 205.8L900 202L900 601L878.5 601C857 601 814 601 771.2 601C728.3 601 685.7 601 642.8 601C600 601 557 601 514.2 601C471.3 601 428.7 601 385.8 601C343 601 300 601 257.2 601C214.3 601 171.7 601 128.8 601C86 601 43 601 21.5 601L0 601Z" fill="#3756bf"></path><path d="M0 271L21.5 268.8C43 266.7 86 262.3 128.8 267.2C171.7 272 214.3 286 257.2 288.8C300 291.7 343 283.3 385.8 276.2C428.7 269 471.3 263 514.2 267.5C557 272 600 287 642.8 292.5C685.7 298 728.3 294 771.2 290.3C814 286.7 857 283.3 878.5 281.7L900 280L900 601L878.5 601C857 601 814 601 771.2 601C728.3 601 685.7 601 642.8 601C600 601 557 601 514.2 601C471.3 601 428.7 601 385.8 601C343 601 300 601 257.2 601C214.3 601 171.7 601 128.8 601C86 601 43 601 21.5 601L0 601Z" fill="#3d4ea0"></path><path d="M0 349L21.5 351C43 353 86 357 128.8 357.2C171.7 357.3 214.3 353.7 257.2 352.5C300 351.3 343 352.7 385.8 348.3C428.7 344 471.3 334 514.2 331.5C557 329 600 334 642.8 337.3C685.7 340.7 728.3 342.3 771.2 340.2C814 338 857 332 878.5 329L900 326L900 601L878.5 601C857 601 814 601 771.2 601C728.3 601 685.7 601 642.8 601C600 601 557 601 514.2 601C471.3 601 428.7 601 385.8 601C343 601 300 601 257.2 601C214.3 601 171.7 601 128.8 601C86 601 43 601 21.5 601L0 601Z" fill="#3e4682"></path><path d="M0 418L21.5 413.7C43 409.3 86 400.7 128.8 398C171.7 395.3 214.3 398.7 257.2 402.8C300 407 343 412 385.8 410.2C428.7 408.3 471.3 399.7 514.2 394.2C557 388.7 600 386.3 642.8 386.3C685.7 386.3 728.3 388.7 771.2 394.5C814 400.3 857 409.7 878.5 414.3L900 419L900 601L878.5 601C857 601 814 601 771.2 601C728.3 601 685.7 601 642.8 601C600 601 557 601 514.2 601C471.3 601 428.7 601 385.8 601C343 601 300 601 257.2 601C214.3 601 171.7 601 128.8 601C86 601 43 601 21.5 601L0 601Z" fill="#3c3f66"></path><path d="M0 455L21.5 453.8C43 452.7 86 450.3 128.8 454.8C171.7 459.3 214.3 470.7 257.2 473.3C300 476 343 470 385.8 464.5C428.7 459 471.3 454 514.2 453.7C557 453.3 600 457.7 642.8 461C685.7 464.3 728.3 466.7 771.2 468.2C814 469.7 857 470.3 878.5 470.7L900 471L900 601L878.5 601C857 601 814 601 771.2 601C728.3 601 685.7 601 642.8 601C600 601 557 601 514.2 601C471.3 601 428.7 601 385.8 601C343 601 300 601 257.2 601C214.3 601 171.7 601 128.8 601C86 601 43 601 21.5 601L0 601Z" fill="#37374a"></path><path d="M0 540L21.5 541.7C43 543.3 86 546.7 128.8 544C171.7 541.3 214.3 532.7 257.2 530.5C300 528.3 343 532.7 385.8 535.5C428.7 538.3 471.3 539.7 514.2 538.2C557 536.7 600 532.3 642.8 529.2C685.7 526 728.3 524 771.2 522.3C814 520.7 857 519.3 878.5 518.7L900 518L900 601L878.5 601C857 601 814 601 771.2 601C728.3 601 685.7 601 642.8 601C600 601 557 601 514.2 601C471.3 601 428.7 601 385.8 601C343 601 300 601 257.2 601C214.3 601 171.7 601 128.8 601C86 601 43 601 21.5 601L0 601Z" fill="#303030"></path></svg>