<?xml version="1.0" encoding="UTF-8" standalone="no"?>
<!DOCTYPE svg PUBLIC "-//W3C//DTD SVG 1.1//EN" "http://www.w3.org/Graphics/SVG/1.1/DTD/svg11.dtd">
<svg width="100%" height="100%" viewBox="0 0 703 92" version="1.1" xmlns="http://www.w3.org/2000/svg" xmlns:xlink="http://www.w3.org/1999/xlink" xml:space="preserve" xmlns:serif="http://www.serif.com/" style="fill-rule:evenodd;clip-rule:evenodd;stroke-linecap:round;stroke-linejoin:round;stroke-miterlimit:1.5;">
    <g id="Artboard1" transform="matrix(0.919344,0,0,0.407864,-204.326,-103.188)">
        <rect x="222.252" y="252.997" width="764.551" height="224.178" style="fill:none;"/>
        <g transform="matrix(3.63242,0,0,5.52729,-1558.47,-908.475)">
            <path d="M522.852,211.308L521.709,217.103M515.563,221.878L520.774,221.878L515.229,249.618L510.019,249.618L515.563,221.878Z" style="fill:rgb(84,91,98);fill-rule:nonzero;"/>
            <path d="M535.026,218.39L528.713,249.618L535.935,249.618L542.248,218.39L552.029,218.39L553.476,211.308L526.234,211.308L524.787,218.39L535.026,218.39Z" style="fill-rule:nonzero;"/>
            <path d="M561.978,211.308L541.832,249.618L549.373,249.618L553.688,241.087L565.892,241.087L566.742,249.618L573.873,249.618L569.337,211.308L561.978,211.308ZM556.67,234.809L564.068,219.571L564.16,219.571L565.4,234.809L556.67,234.809Z" style="fill-rule:nonzero;"/>
            <path d="M584.238,211.308L576.478,249.618L583.152,249.618L588.448,222.737L588.539,222.737L596.864,249.618L604.04,249.618L611.845,211.308L605.263,211.308L599.959,238.565L599.867,238.565L591.642,211.308L584.238,211.308Z" style="fill-rule:nonzero;"/>
            <g transform="matrix(1,0,0,1,-1.1309,-0.0229798)">
                <path d="M621.44,234.755L618.484,249.618L625.706,249.618L628.561,235.131L645.03,211.308L636.574,211.308L626.042,227.619L621.536,211.308L614.177,211.308L621.44,234.755Z" style="fill-rule:nonzero;"/>
            </g>
            <path d="M653.547,218.39L647.235,249.618L654.456,249.618L660.769,218.39L670.551,218.39L671.997,211.308L644.755,211.308L643.308,218.39L653.547,218.39Z" style="fill-rule:nonzero;"/>
            <path d="M675.608,211.308L667.895,249.618L693.034,249.618L694.481,242.535L676.472,242.535L678.384,233.146L694.794,233.146L696.136,226.6L679.727,226.6L681.383,218.39L699.118,218.39L700.519,211.308L675.608,211.308Z" style="fill-rule:nonzero;"/>
        </g>
        <g transform="matrix(1.08773,0,0,2.4518,-50.3055,-520.672)">
            <rect x="338.049" y="331.043" width="16.816" height="3.081" style="stroke:black;stroke-width:0.05px;"/>
        </g>
        <g transform="matrix(0.938845,0,0,2.4518,108.21,-274.343)">
            <path d="M160.765,233.701L137.563,304.1L163.923,304.1L187.125,233.701L222.828,233.701L228.146,217.734L128.711,217.734L123.394,233.701L160.765,233.701Z" style="fill-rule:nonzero;"/>
        </g>
        <g transform="matrix(1.22199,0,-0.39033,3.06831,204.692,56.101)">
            <rect x="117.281" y="66.29" width="16.536" height="12.755"/>
        </g>
    </g>
</svg>
