<svg id="visual" viewBox="0 0 900 600" width="900" height="600" xmlns="http://www.w3.org/2000/svg" xmlns:xlink="http://www.w3.org/1999/xlink" version="1.1"><rect x="0" y="0" width="900" height="600" fill="#ffffff"></rect><path d="M0 481L37.5 456C75 431 150 381 225 364.8C300 348.7 375 366.3 450 382.3C525 398.3 600 412.7 675 410.8C750 409 825 391 862.5 382L900 373L900 0L862.5 0C825 0 750 0 675 0C600 0 525 0 450 0C375 0 300 0 225 0C150 0 75 0 37.5 0L0 0Z" fill="#395dff"></path><path d="M0 352L37.5 348.7C75 345.3 150 338.7 225 339.7C300 340.7 375 349.3 450 341.5C525 333.7 600 309.3 675 297.2C750 285 825 285 862.5 285L900 285L900 0L862.5 0C825 0 750 0 675 0C600 0 525 0 450 0C375 0 300 0 225 0C150 0 75 0 37.5 0L0 0Z" fill="#324be7"></path><path d="M0 267L37.5 272C75 277 150 287 225 292.3C300 297.7 375 298.3 450 285.3C525 272.3 600 245.7 675 233.7C750 221.7 825 224.3 862.5 225.7L900 227L900 0L862.5 0C825 0 750 0 675 0C600 0 525 0 450 0C375 0 300 0 225 0C150 0 75 0 37.5 0L0 0Z" fill="#293ad0"></path><path d="M0 243L37.5 233C75 223 150 203 225 204.7C300 206.3 375 229.7 450 231C525 232.3 600 211.7 675 205.8C750 200 825 209 862.5 213.5L900 218L900 0L862.5 0C825 0 750 0 675 0C600 0 525 0 450 0C375 0 300 0 225 0C150 0 75 0 37.5 0L0 0Z" fill="#1f28b9"></path><path d="M0 187L37.5 183.3C75 179.7 150 172.3 225 164.2C300 156 375 147 450 151.2C525 155.3 600 172.7 675 178.7C750 184.7 825 179.3 862.5 176.7L900 174L900 0L862.5 0C825 0 750 0 675 0C600 0 525 0 450 0C375 0 300 0 225 0C150 0 75 0 37.5 0L0 0Z" fill="#1216a2"></path><path d="M0 84L37.5 84.3C75 84.7 150 85.3 225 87.3C300 89.3 375 92.7 450 94.2C525 95.7 600 95.3 675 92C750 88.7 825 82.3 862.5 79.2L900 76L900 0L862.5 0C825 0 750 0 675 0C600 0 525 0 450 0C375 0 300 0 225 0C150 0 75 0 37.5 0L0 0Z" fill="#00008c"></path></svg>