<svg id="visual" viewBox="0 0 960 540" width="960" height="540" xmlns="http://www.w3.org/2000/svg" xmlns:xlink="http://www.w3.org/1999/xlink" version="1.1"><rect x="0" y="0" width="960" height="540" fill="#ffffff"></rect><path d="M0 384L20 380.2C40 376.3 80 368.7 120 357.7C160 346.7 200 332.3 240 321.8C280 311.3 320 304.7 360 308.5C400 312.3 440 326.7 480 336.7C520 346.7 560 352.3 600 351.3C640 350.3 680 342.7 720 340C760 337.3 800 339.7 840 342C880 344.3 920 346.7 940 347.8L960 349L960 0L940 0C920 0 880 0 840 0C800 0 760 0 720 0C680 0 640 0 600 0C560 0 520 0 480 0C440 0 400 0 360 0C320 0 280 0 240 0C200 0 160 0 120 0C80 0 40 0 20 0L0 0Z" fill="#1e4dff"></path><path d="M0 324L20 319.8C40 315.7 80 307.3 120 309C160 310.7 200 322.3 240 319.5C280 316.7 320 299.3 360 298.7C400 298 440 314 480 320.3C520 326.7 560 323.3 600 311C640 298.7 680 277.3 720 274.7C760 272 800 288 840 299.3C880 310.7 920 317.3 940 320.7L960 324L960 0L940 0C920 0 880 0 840 0C800 0 760 0 720 0C680 0 640 0 600 0C560 0 520 0 480 0C440 0 400 0 360 0C320 0 280 0 240 0C200 0 160 0 120 0C80 0 40 0 20 0L0 0Z" fill="#0343d5"></path><path d="M0 257L20 252.8C40 248.7 80 240.3 120 244.5C160 248.7 200 265.3 240 265.3C280 265.3 320 248.7 360 241.3C400 234 440 236 480 236.7C520 237.3 560 236.7 600 237.7C640 238.7 680 241.3 720 244C760 246.7 800 249.3 840 255.8C880 262.3 920 272.7 940 277.8L960 283L960 0L940 0C920 0 880 0 840 0C800 0 760 0 720 0C680 0 640 0 600 0C560 0 520 0 480 0C440 0 400 0 360 0C320 0 280 0 240 0C200 0 160 0 120 0C80 0 40 0 20 0L0 0Z" fill="#0038ac"></path><path d="M0 232L20 233.8C40 235.7 80 239.3 120 231.2C160 223 200 203 240 201.2C280 199.3 320 215.7 360 215.8C400 216 440 200 480 190.7C520 181.3 560 178.7 600 177.8C640 177 680 178 720 183.5C760 189 800 199 840 206.8C880 214.7 920 220.3 940 223.2L960 226L960 0L940 0C920 0 880 0 840 0C800 0 760 0 720 0C680 0 640 0 600 0C560 0 520 0 480 0C440 0 400 0 360 0C320 0 280 0 240 0C200 0 160 0 120 0C80 0 40 0 20 0L0 0Z" fill="#002d84"></path><path d="M0 132L20 135.3C40 138.7 80 145.3 120 154.2C160 163 200 174 240 178.3C280 182.7 320 180.3 360 174.3C400 168.3 440 158.7 480 153.5C520 148.3 560 147.7 600 148.7C640 149.7 680 152.3 720 152C760 151.7 800 148.3 840 149.5C880 150.7 920 156.3 940 159.2L960 162L960 0L940 0C920 0 880 0 840 0C800 0 760 0 720 0C680 0 640 0 600 0C560 0 520 0 480 0C440 0 400 0 360 0C320 0 280 0 240 0C200 0 160 0 120 0C80 0 40 0 20 0L0 0Z" fill="#03215d"></path><path d="M0 92L20 95.8C40 99.7 80 107.3 120 112.2C160 117 200 119 240 116.5C280 114 320 107 360 100.7C400 94.3 440 88.7 480 87.2C520 85.7 560 88.3 600 93.2C640 98 680 105 720 111.5C760 118 800 124 840 121.8C880 119.7 920 109.3 940 104.2L960 99L960 0L940 0C920 0 880 0 840 0C800 0 760 0 720 0C680 0 640 0 600 0C560 0 520 0 480 0C440 0 400 0 360 0C320 0 280 0 240 0C200 0 160 0 120 0C80 0 40 0 20 0L0 0Z" fill="#071538"></path><path d="M0 60L20 62.5C40 65 80 70 120 72.7C160 75.3 200 75.7 240 69.3C280 63 320 50 360 50.7C400 51.3 440 65.7 480 71.5C520 77.3 560 74.7 600 75.2C640 75.7 680 79.3 720 75.8C760 72.3 800 61.7 840 60.3C880 59 920 67 940 71L960 75L960 0L940 0C920 0 880 0 840 0C800 0 760 0 720 0C680 0 640 0 600 0C560 0 520 0 480 0C440 0 400 0 360 0C320 0 280 0 240 0C200 0 160 0 120 0C80 0 40 0 20 0L0 0Z" fill="#000117"></path></svg>