<svg id="visual" viewBox="0 0 900 600" width="900" height="600" xmlns="http://www.w3.org/2000/svg" xmlns:xlink="http://www.w3.org/1999/xlink" version="1.1"><rect x="0" y="0" width="900" height="600" fill="#0b0b0b"></rect><path d="M0 428L37.5 437.5C75 447 150 466 225 457.5C300 449 375 413 450 414C525 415 600 453 675 472.8C750 492.7 825 494.3 862.5 495.2L900 496L900 0L862.5 0C825 0 750 0 675 0C600 0 525 0 450 0C375 0 300 0 225 0C150 0 75 0 37.5 0L0 0Z" fill="#395dff"></path><path d="M0 406L37.5 388.2C75 370.3 150 334.7 225 323.5C300 312.3 375 325.7 450 345C525 364.3 600 389.7 675 396.2C750 402.7 825 390.3 862.5 384.2L900 378L900 0L862.5 0C825 0 750 0 675 0C600 0 525 0 450 0C375 0 300 0 225 0C150 0 75 0 37.5 0L0 0Z" fill="#324be7"></path><path d="M0 271L37.5 276.8C75 282.7 150 294.3 225 301C300 307.7 375 309.3 450 310.5C525 311.7 600 312.3 675 305.2C750 298 825 283 862.5 275.5L900 268L900 0L862.5 0C825 0 750 0 675 0C600 0 525 0 450 0C375 0 300 0 225 0C150 0 75 0 37.5 0L0 0Z" fill="#293ad0"></path><path d="M0 263L37.5 254.7C75 246.3 150 229.7 225 227.3C300 225 375 237 450 232.8C525 228.7 600 208.3 675 203.8C750 199.3 825 210.7 862.5 216.3L900 222L900 0L862.5 0C825 0 750 0 675 0C600 0 525 0 450 0C375 0 300 0 225 0C150 0 75 0 37.5 0L0 0Z" fill="#1f28b9"></path><path d="M0 143L37.5 148.7C75 154.3 150 165.7 225 173.5C300 181.3 375 185.7 450 177C525 168.3 600 146.7 675 143.7C750 140.7 825 156.3 862.5 164.2L900 172L900 0L862.5 0C825 0 750 0 675 0C600 0 525 0 450 0C375 0 300 0 225 0C150 0 75 0 37.5 0L0 0Z" fill="#1216a2"></path><path d="M0 94L37.5 90.7C75 87.3 150 80.7 225 81.7C300 82.7 375 91.3 450 94.8C525 98.3 600 96.7 675 99.3C750 102 825 109 862.5 112.5L900 116L900 0L862.5 0C825 0 750 0 675 0C600 0 525 0 450 0C375 0 300 0 225 0C150 0 75 0 37.5 0L0 0Z" fill="#00008c"></path></svg>