<svg id="visual" viewBox="0 0 900 600" width="900" height="600" xmlns="http://www.w3.org/2000/svg" xmlns:xlink="http://www.w3.org/1999/xlink" version="1.1"><rect x="0" y="0" width="900" height="600" fill="#ffffff"></rect><path d="M0 464L30 460.5C60 457 120 450 180 455.8C240 461.7 300 480.3 360 484.8C420 489.3 480 479.7 540 474.8C600 470 660 470 720 470.7C780 471.3 840 472.7 870 473.3L900 474L900 0L870 0C840 0 780 0 720 0C660 0 600 0 540 0C480 0 420 0 360 0C300 0 240 0 180 0C120 0 60 0 30 0L0 0Z" fill="#003eff"></path><path d="M0 395L30 395.3C60 395.7 120 396.3 180 402C240 407.7 300 418.3 360 420.8C420 423.3 480 417.7 540 420.2C600 422.7 660 433.3 720 431.7C780 430 840 416 870 409L900 402L900 0L870 0C840 0 780 0 720 0C660 0 600 0 540 0C480 0 420 0 360 0C300 0 240 0 180 0C120 0 60 0 30 0L0 0Z" fill="#0936f0"></path><path d="M0 344L30 348C60 352 120 360 180 361.3C240 362.7 300 357.3 360 356.3C420 355.3 480 358.7 540 358.8C600 359 660 356 720 361.3C780 366.7 840 380.3 870 387.2L900 394L900 0L870 0C840 0 780 0 720 0C660 0 600 0 540 0C480 0 420 0 360 0C300 0 240 0 180 0C120 0 60 0 30 0L0 0Z" fill="#0e2fe1"></path><path d="M0 287L30 295C60 303 120 319 180 324.2C240 329.3 300 323.7 360 325C420 326.3 480 334.7 540 331.7C600 328.7 660 314.3 720 314C780 313.7 840 327.3 870 334.2L900 341L900 0L870 0C840 0 780 0 720 0C660 0 600 0 540 0C480 0 420 0 360 0C300 0 240 0 180 0C120 0 60 0 30 0L0 0Z" fill="#1027d2"></path><path d="M0 279L30 279.7C60 280.3 120 281.7 180 276.3C240 271 300 259 360 259.8C420 260.7 480 274.3 540 271.2C600 268 660 248 720 240.3C780 232.7 840 237.3 870 239.7L900 242L900 0L870 0C840 0 780 0 720 0C660 0 600 0 540 0C480 0 420 0 360 0C300 0 240 0 180 0C120 0 60 0 30 0L0 0Z" fill="#1020c4"></path><path d="M0 219L30 220C60 221 120 223 180 217C240 211 300 197 360 197C420 197 480 211 540 212.7C600 214.3 660 203.7 720 197.7C780 191.7 840 190.3 870 189.7L900 189L900 0L870 0C840 0 780 0 720 0C660 0 600 0 540 0C480 0 420 0 360 0C300 0 240 0 180 0C120 0 60 0 30 0L0 0Z" fill="#0f18b6"></path><path d="M0 132L30 136.5C60 141 120 150 180 157C240 164 300 169 360 166.8C420 164.7 480 155.3 540 151.8C600 148.3 660 150.7 720 155.2C780 159.7 840 166.3 870 169.7L900 173L900 0L870 0C840 0 780 0 720 0C660 0 600 0 540 0C480 0 420 0 360 0C300 0 240 0 180 0C120 0 60 0 30 0L0 0Z" fill="#0c10a8"></path><path d="M0 95L30 92C60 89 120 83 180 86.7C240 90.3 300 103.7 360 110.8C420 118 480 119 540 120.5C600 122 660 124 720 120C780 116 840 106 870 101L900 96L900 0L870 0C840 0 780 0 720 0C660 0 600 0 540 0C480 0 420 0 360 0C300 0 240 0 180 0C120 0 60 0 30 0L0 0Z" fill="#08079a"></path><path d="M0 65L30 67.2C60 69.3 120 73.7 180 73.8C240 74 300 70 360 66.7C420 63.3 480 60.7 540 62.2C600 63.7 660 69.3 720 71.2C780 73 840 71 870 70L900 69L900 0L870 0C840 0 780 0 720 0C660 0 600 0 540 0C480 0 420 0 360 0C300 0 240 0 180 0C120 0 60 0 30 0L0 0Z" fill="#04008d"></path></svg>