<svg id="visual" viewBox="0 0 900 600" width="900" height="600" xmlns="http://www.w3.org/2000/svg" xmlns:xlink="http://www.w3.org/1999/xlink" version="1.1"><rect x="0" y="0" width="900" height="600" fill="#ffffff"></rect><path d="M0 182L37.5 183.3C75 184.7 150 187.3 225 186C300 184.7 375 179.3 450 182.5C525 185.7 600 197.3 675 199.5C750 201.7 825 194.3 862.5 190.7L900 187L900 0L862.5 0C825 0 750 0 675 0C600 0 525 0 450 0C375 0 300 0 225 0C150 0 75 0 37.5 0L0 0Z" fill="#3a57db"></path><path d="M0 151L37.5 155.7C75 160.3 150 169.7 225 172.5C300 175.3 375 171.7 450 172C525 172.3 600 176.7 675 170.8C750 165 825 149 862.5 141L900 133L900 0L862.5 0C825 0 750 0 675 0C600 0 525 0 450 0C375 0 300 0 225 0C150 0 75 0 37.5 0L0 0Z" fill="#2a3dc1"></path><path d="M0 99L37.5 99C75 99 150 99 225 99.5C300 100 375 101 450 103.3C525 105.7 600 109.3 675 112.8C750 116.3 825 119.7 862.5 121.3L900 123L900 0L862.5 0C825 0 750 0 675 0C600 0 525 0 450 0C375 0 300 0 225 0C150 0 75 0 37.5 0L0 0Z" fill="#1922a7"></path><path d="M0 78L37.5 75.3C75 72.7 150 67.3 225 62C300 56.7 375 51.3 450 47.8C525 44.3 600 42.7 675 43C750 43.3 825 45.7 862.5 46.8L900 48L900 0L862.5 0C825 0 750 0 675 0C600 0 525 0 450 0C375 0 300 0 225 0C150 0 75 0 37.5 0L0 0Z" fill="#00008c"></path></svg>